<?xml version="1.0" encoding="UTF-8"?>
<svg width="720" height="520" viewBox="0 0 720 520" fill="none" xmlns="http://www.w3.org/2000/svg">
  <defs>
    <linearGradient id="g1" x1="0" y1="0" x2="1" y2="1">
      <stop offset="0%" stop-color="#2563EB"/>
      <stop offset="100%" stop-color="#10B981"/>
    </linearGradient>
    <filter id="shadow" x="-50%" y="-50%" width="200%" height="200%">
      <feDropShadow dx="0" dy="8" stdDeviation="12" flood-color="#000" flood-opacity="0.12"/>
    </filter>
  </defs>
  <rect x="20" y="20" rx="24" ry="24" width="680" height="480" fill="white" stroke="#EEF2F7"/>
  <g filter="url(#shadow)">
    <circle cx="220" cy="230" r="110" fill="url(#g1)"/>
  </g>
  <g>
    <rect x="330" y="150" width="280" height="180" rx="16" fill="#F8FAFC" stroke="#E5E7EB"/>
    <rect x="350" y="170" width="100" height="12" rx="6" fill="#CBD5E1"/>
    <rect x="350" y="194" width="230" height="10" rx="5" fill="#E2E8F0"/>
    <rect x="350" y="214" width="210" height="10" rx="5" fill="#E2E8F0"/>
    <rect x="350" y="234" width="180" height="10" rx="5" fill="#E2E8F0"/>
    <rect x="350" y="274" width="160" height="36" rx="10" fill="#2563EB" opacity="0.9"/>
  </g>
  <g>
    <circle cx="220" cy="230" r="64" fill="white"/>
    <circle cx="202" cy="222" r="10" fill="#2563EB"/>
    <circle cx="238" cy="222" r="10" fill="#2563EB"/>
    <rect x="196" y="244" width="48" height="8" rx="4" fill="#0EA5E9"/>
    <rect x="200" y="168" width="40" height="16" rx="8" fill="#10B981"/>
  </g>
  <text x="40" y="76" font-family="Poppins, Inter, Arial" font-weight="700" font-size="24" fill="#111827">AI Resume Assistant</text>
</svg>
